<svg width="434" height="583" viewBox="0 0 434 583" fill="none" xmlns="http://www.w3.org/2000/svg">
<g clip-path="url(#clip0_161_474)">
<rect width="433.61" height="582.537" fill="#FFFAEE"/>
<rect x="16.5769" y="-163.908" width="12.4811" height="811.129" transform="rotate(-45 16.5769 -163.908)" fill="#AE1100"/>
<rect x="83.9751" y="-163.908" width="12.4811" height="717.663" transform="rotate(-45 83.9751 -163.908)" fill="#AE1100"/>
<rect x="151.372" y="-163.908" width="12.4811" height="717.663" transform="rotate(-45 151.372 -163.908)" fill="#AE1100"/>
<rect x="218.77" y="-163.908" width="12.4811" height="717.663" transform="rotate(-45 218.77 -163.908)" fill="#AE1100"/>
<rect x="283.672" y="-163.908" width="12.4811" height="717.663" transform="rotate(-45 283.672 -163.908)" fill="#AE1100"/>
<rect x="351.07" y="-163.908" width="12.4811" height="717.663" transform="rotate(-45 351.07 -163.908)" fill="#AE1100"/>
<rect x="418.468" y="-163.908" width="12.4811" height="717.663" transform="rotate(-45 418.468 -163.908)" fill="#AE1100"/>
<rect x="-527.6" y="-163.908" width="12.4811" height="1442.49" transform="rotate(-45 -527.6 -163.908)" fill="#AE1100"/>
<rect x="-460.202" y="-163.908" width="12.4811" height="717.663" transform="rotate(-45 -460.202 -163.908)" fill="#AE1100"/>
<rect x="-392.803" y="-163.908" width="12.4811" height="717.663" transform="rotate(-45 -392.803 -163.908)" fill="#AE1100"/>
<rect x="-325.405" y="-163.908" width="12.4811" height="1099.76" transform="rotate(-45 -325.405 -163.908)" fill="#AE1100"/>
<rect x="-260.504" y="-163.908" width="12.4811" height="1000.16" transform="rotate(-45 -260.504 -163.908)" fill="#AE1100"/>
<rect x="-193.105" y="-163.908" width="12.4811" height="1102.7" transform="rotate(-45 -193.105 -163.908)" fill="#AE1100"/>
<rect x="-125.708" y="-163.908" width="12.4811" height="971.723" transform="rotate(-45 -125.708 -163.908)" fill="#AE1100"/>
<rect x="-58.3105" y="-163.908" width="12.4811" height="941.058" transform="rotate(-45 -58.3105 -163.908)" fill="#AE1100"/>
<rect x="14.4824" y="-125.621" width="12.4811" height="811.129" transform="rotate(-45 14.4824 -125.621)" fill="#12131D"/>
<rect x="81.8804" y="-125.621" width="12.4811" height="717.663" transform="rotate(-45 81.8804 -125.621)" fill="#12131D"/>
<rect x="149.277" y="-125.621" width="12.4811" height="717.663" transform="rotate(-45 149.277 -125.621)" fill="#12131D"/>
<rect x="216.675" y="-125.621" width="12.4811" height="717.663" transform="rotate(-45 216.675 -125.621)" fill="#12131D"/>
<rect x="281.577" y="-125.621" width="12.4811" height="717.663" transform="rotate(-45 281.577 -125.621)" fill="#12131D"/>
<rect x="348.975" y="-125.621" width="12.4811" height="717.663" transform="rotate(-45 348.975 -125.621)" fill="#12131D"/>
<rect x="416.373" y="-125.621" width="12.4811" height="717.663" transform="rotate(-45 416.373 -125.621)" fill="#12131D"/>
<rect x="-529.694" y="-125.621" width="12.4811" height="1442.49" transform="rotate(-45 -529.694 -125.621)" fill="#12131D"/>
<rect x="-462.296" y="-125.621" width="12.4811" height="717.663" transform="rotate(-45 -462.296 -125.621)" fill="#12131D"/>
<rect x="-394.898" y="-125.621" width="12.4811" height="717.663" transform="rotate(-45 -394.898 -125.621)" fill="#12131D"/>
<rect x="-327.5" y="-125.621" width="12.4811" height="1099.76" transform="rotate(-45 -327.5 -125.621)" fill="#12131D"/>
<rect x="-262.598" y="-125.621" width="12.4811" height="1000.16" transform="rotate(-45 -262.598 -125.621)" fill="#12131D"/>
<rect x="-195.2" y="-125.621" width="12.4811" height="1102.7" transform="rotate(-45 -195.2 -125.621)" fill="#12131D"/>
<rect x="-127.803" y="-125.621" width="12.4811" height="971.723" transform="rotate(-45 -127.803 -125.621)" fill="#12131D"/>
<rect x="-60.405" y="-125.621" width="12.4811" height="941.058" transform="rotate(-45 -60.405 -125.621)" fill="#12131D"/>
</g>
<defs>
<clipPath id="clip0_161_474">
<rect width="433.61" height="582.537" fill="white"/>
</clipPath>
</defs>
</svg>
