<svg width="1280" height="744" viewBox="0 0 1280 744" fill="none" xmlns="http://www.w3.org/2000/svg">
<circle cx="639.5" cy="919.5" r="674.5" fill="#12131D"/>
<path d="M246 400C290.5 427.5 432.6 481.9 645 479.5C857.4 477.1 992.833 425.5 1034 400" stroke="#FFFAEE" stroke-width="21" stroke-linecap="round"/>
<path d="M106 568L172 696.5L262.5 568L342 696.5L417.5 568L488.5 696.5L564.5 568L637 696.5L719.5 568L801.5 696.5L876 568L948.5 696.5L1021 568L1097 696.5L1174.5 568" stroke="#FFFAEE" stroke-width="21" stroke-linecap="round"/>
<path d="M640 26C692.919 26 736 69.1042 736 122.5C736 175.896 692.919 219 640 219C587.081 219 544 175.896 544 122.5C544 69.1042 587.081 26 640 26Z" stroke="#12131D" stroke-width="52"/>
<rect x="465" y="195" width="349" height="120" fill="#12131D"/>
</svg>
