<svg width="673" height="31" viewBox="0 0 673 31" fill="none" xmlns="http://www.w3.org/2000/svg">
<path d="M8.13159 0.620117L9.52115 18.4546" stroke="#FFFAEE" stroke-width="2.7"/>
<path d="M0.595459 5.52246L17.1271 13.2058" stroke="#FFFAEE" stroke-width="2.7"/>
<path d="M1.29028 14.4395L16.4324 4.28827" stroke="#FFFAEE" stroke-width="2.7"/>
<path d="M105.132 9.62012L106.521 27.4546" stroke="#FFFAEE" stroke-width="2.7"/>
<path d="M97.5955 14.5225L114.127 22.2058" stroke="#FFFAEE" stroke-width="2.7"/>
<path d="M98.2903 23.4395L113.432 13.2883" stroke="#FFFAEE" stroke-width="2.7"/>
<path d="M207.132 8.62012L208.521 26.4546" stroke="#FFFAEE" stroke-width="2.7"/>
<path d="M199.595 13.5225L216.127 21.2058" stroke="#FFFAEE" stroke-width="2.7"/>
<path d="M200.29 22.4395L215.432 12.2883" stroke="#FFFAEE" stroke-width="2.7"/>
<path d="M356.132 10.6201L357.521 28.4546" stroke="#FFFAEE" stroke-width="2.7"/>
<path d="M348.595 15.5225L365.127 23.2058" stroke="#FFFAEE" stroke-width="2.7"/>
<path d="M349.29 24.4395L364.432 14.2883" stroke="#FFFAEE" stroke-width="2.7"/>
<path d="M505.132 10.6201L506.521 28.4546" stroke="#FFFAEE" stroke-width="2.7"/>
<path d="M497.595 15.5225L514.127 23.2058" stroke="#FFFAEE" stroke-width="2.7"/>
<path d="M498.29 24.4395L513.432 14.2883" stroke="#FFFAEE" stroke-width="2.7"/>
<path d="M663.132 11.6201L664.521 29.4546" stroke="#FFFAEE" stroke-width="2.7"/>
<path d="M655.595 16.5225L672.127 24.2058" stroke="#FFFAEE" stroke-width="2.7"/>
<path d="M656.29 25.4395L671.432 15.2883" stroke="#FFFAEE" stroke-width="2.7"/>
</svg>
