<svg width="673" height="31" viewBox="0 0 673 31" fill="none" xmlns="http://www.w3.org/2000/svg">
<path d="M8.13159 0.621094L9.52115 18.4556" stroke="#FFFAEE" stroke-width="2.7"/>
<path d="M0.595459 5.52344L17.1271 13.2068" stroke="#FFFAEE" stroke-width="2.7"/>
<path d="M1.29028 14.4404L16.4324 4.28925" stroke="#FFFAEE" stroke-width="2.7"/>
<path d="M105.132 9.62109L106.521 27.4556" stroke="#FFFAEE" stroke-width="2.7"/>
<path d="M97.5955 14.5234L114.127 22.2068" stroke="#FFFAEE" stroke-width="2.7"/>
<path d="M98.2903 23.4404L113.432 13.2892" stroke="#FFFAEE" stroke-width="2.7"/>
<path d="M207.132 8.62109L208.521 26.4556" stroke="#FFFAEE" stroke-width="2.7"/>
<path d="M199.595 13.5234L216.127 21.2068" stroke="#FFFAEE" stroke-width="2.7"/>
<path d="M200.29 22.4404L215.432 12.2892" stroke="#FFFAEE" stroke-width="2.7"/>
<path d="M356.132 10.6211L357.521 28.4556" stroke="#FFFAEE" stroke-width="2.7"/>
<path d="M348.595 15.5234L365.127 23.2068" stroke="#FFFAEE" stroke-width="2.7"/>
<path d="M349.29 24.4404L364.432 14.2892" stroke="#FFFAEE" stroke-width="2.7"/>
<path d="M505.132 10.6211L506.521 28.4556" stroke="#FFFAEE" stroke-width="2.7"/>
<path d="M497.595 15.5234L514.127 23.2068" stroke="#FFFAEE" stroke-width="2.7"/>
<path d="M498.29 24.4404L513.432 14.2892" stroke="#FFFAEE" stroke-width="2.7"/>
<path d="M663.132 11.6211L664.521 29.4556" stroke="#FFFAEE" stroke-width="2.7"/>
<path d="M655.595 16.5234L672.127 24.2068" stroke="#FFFAEE" stroke-width="2.7"/>
<path d="M656.29 25.4404L671.432 15.2892" stroke="#FFFAEE" stroke-width="2.7"/>
</svg>
