<svg width="418" height="89" viewBox="0 0 418 89" fill="none" xmlns="http://www.w3.org/2000/svg">
<path d="M7.81567 63.1191L10.3338 45.4087" stroke="#FFFAEE" stroke-width="2.7"/>
<path d="M0.605713 57.748L17.5915 51.1289" stroke="#FFFAEE" stroke-width="2.7"/>
<path d="M1.86475 48.8936L16.3324 59.9849" stroke="#FFFAEE" stroke-width="2.7"/>
<path d="M61.8508 48.5176L64.369 30.8071" stroke="#FFFAEE" stroke-width="2.7"/>
<path d="M54.6409 43.1465L71.6266 36.5273" stroke="#FFFAEE" stroke-width="2.7"/>
<path d="M55.8999 34.292L70.3675 45.3833" stroke="#FFFAEE" stroke-width="2.7"/>
<path d="M161.952 18.8223L164.471 1.11181" stroke="#FFFAEE" stroke-width="2.7"/>
<path d="M154.742 13.4512L171.728 6.83202" stroke="#FFFAEE" stroke-width="2.7"/>
<path d="M156.001 4.59668L170.469 15.688" stroke="#FFFAEE" stroke-width="2.7"/>
<path d="M407.073 87.4961L409.592 69.7856" stroke="#FFFAEE" stroke-width="2.7"/>
<path d="M399.864 82.125L416.849 75.5058" stroke="#FFFAEE" stroke-width="2.7"/>
<path d="M401.123 73.2705L415.59 84.3618" stroke="#FFFAEE" stroke-width="2.7"/>
<path d="M333.952 50.8223L336.471 33.1118" stroke="#FFFAEE" stroke-width="2.7"/>
<path d="M326.742 45.4512L343.728 38.832" stroke="#FFFAEE" stroke-width="2.7"/>
<path d="M328.001 36.5967L342.469 47.688" stroke="#FFFAEE" stroke-width="2.7"/>
</svg>
