<svg width="399" height="103" viewBox="0 0 399 103" fill="none" xmlns="http://www.w3.org/2000/svg">
<path d="M7.81567 63.1182L10.3338 45.4077" stroke="#FFFAEE" stroke-width="2.7"/>
<path d="M0.605713 57.7471L17.5915 51.1279" stroke="#FFFAEE" stroke-width="2.7"/>
<path d="M1.86475 48.8926L16.3324 59.9839" stroke="#FFFAEE" stroke-width="2.7"/>
<path d="M61.8508 48.5166L64.369 30.8061" stroke="#FFFAEE" stroke-width="2.7"/>
<path d="M54.6409 43.1455L71.6266 36.5264" stroke="#FFFAEE" stroke-width="2.7"/>
<path d="M55.8999 34.291L70.3675 45.3823" stroke="#FFFAEE" stroke-width="2.7"/>
<path d="M161.952 18.8213L164.471 1.11083" stroke="#FFFAEE" stroke-width="2.7"/>
<path d="M154.742 13.4502L171.728 6.83104" stroke="#FFFAEE" stroke-width="2.7"/>
<path d="M156.001 4.5957L170.469 15.687" stroke="#FFFAEE" stroke-width="2.7"/>
<path d="M387.952 101.818L390.471 84.1079" stroke="#FFFAEE" stroke-width="2.7"/>
<path d="M380.742 96.4473L397.728 89.8281" stroke="#FFFAEE" stroke-width="2.7"/>
<path d="M382.001 87.5928L396.469 98.6841" stroke="#FFFAEE" stroke-width="2.7"/>
<path d="M333.952 50.8213L336.471 33.1108" stroke="#FFFAEE" stroke-width="2.7"/>
<path d="M326.742 45.4502L343.728 38.831" stroke="#FFFAEE" stroke-width="2.7"/>
<path d="M328.001 36.5957L342.469 47.687" stroke="#FFFAEE" stroke-width="2.7"/>
</svg>
