<svg width="534" height="317" viewBox="0 0 534 317" fill="none" xmlns="http://www.w3.org/2000/svg">
<path d="M218.265 281.832C213.91 282.353 209.958 279.244 209.438 274.889L208.495 267.004L200.61 267.946C196.255 268.467 192.303 265.358 191.782 261.003C191.262 256.649 194.37 252.696 198.725 252.176L206.61 251.233L205.668 243.348C205.148 238.993 208.256 235.041 212.611 234.52C216.966 234 220.918 237.108 221.439 241.463L222.381 249.349L230.266 248.406C234.621 247.886 238.573 250.994 239.094 255.349C239.614 259.704 236.506 263.656 232.151 264.177L224.266 265.119L225.208 273.004C225.729 277.359 222.62 281.312 218.265 281.832Z" fill="#AE1100"/>
<path d="M436.627 255.734C432.272 256.255 428.319 253.146 427.799 248.792L426.857 240.906L418.971 241.849C414.616 242.369 410.664 239.261 410.144 234.906C409.623 230.551 412.732 226.599 417.086 226.078L424.972 225.136L424.029 217.25C423.509 212.896 426.617 208.943 430.972 208.423C435.327 207.902 439.279 211.011 439.8 215.366L440.742 223.251L448.628 222.309C452.982 221.788 456.935 224.897 457.455 229.251C457.976 233.606 454.867 237.559 450.512 238.079L442.627 239.021L443.569 246.907C444.09 251.262 440.982 255.214 436.627 255.734Z" fill="#AE1100"/>
<path d="M272.855 275.308C268.5 275.828 264.548 272.72 264.027 268.365L263.085 260.48L255.2 261.422C250.845 261.942 246.893 258.834 246.372 254.479C245.852 250.124 248.96 246.172 253.315 245.651L261.2 244.709L260.258 236.824C259.737 232.469 262.846 228.517 267.201 227.996C271.556 227.476 275.508 230.584 276.028 234.939L276.971 242.824L284.856 241.882C289.211 241.361 293.163 244.47 293.684 248.825C294.204 253.18 291.096 257.132 286.741 257.652L278.856 258.595L279.798 266.48C280.318 270.835 277.21 274.787 272.855 275.308Z" fill="#AE1100"/>
<path d="M382.037 262.259C377.682 262.779 373.73 259.671 373.209 255.316L372.267 247.431L364.381 248.373C360.027 248.894 356.074 245.785 355.554 241.43C355.033 237.075 358.142 233.123 362.497 232.603L370.382 231.66L369.439 223.775C368.919 219.42 372.027 215.468 376.382 214.947C380.737 214.427 384.69 217.535 385.21 221.89L386.152 229.775L394.038 228.833C398.393 228.312 402.345 231.421 402.865 235.776C403.386 240.131 400.277 244.083 395.922 244.603L388.037 245.546L388.98 253.431C389.5 257.786 386.392 261.738 382.037 262.259Z" fill="#AE1100"/>
<path d="M327.446 268.783C323.091 269.304 319.139 266.195 318.618 261.84L317.676 253.955L309.791 254.898C305.436 255.418 301.483 252.31 300.963 247.955C300.442 243.6 303.551 239.647 307.906 239.127L315.791 238.185L314.849 230.299C314.328 225.944 317.437 221.992 321.792 221.472C326.146 220.951 330.099 224.06 330.619 228.415L331.562 236.3L339.447 235.357C343.802 234.837 347.754 237.945 348.275 242.3C348.795 246.655 345.687 250.607 341.332 251.128L333.446 252.07L334.389 259.956C334.909 264.31 331.801 268.263 327.446 268.783Z" fill="#AE1100"/>
<path d="M491.217 249.211C486.863 249.731 482.91 246.623 482.39 242.268L481.447 234.383L473.562 235.325C469.207 235.846 465.255 232.737 464.734 228.382C464.214 224.027 467.322 220.075 471.677 219.555L479.563 218.612L478.62 210.727C478.1 206.372 481.208 202.42 485.563 201.899C489.918 201.379 493.87 204.487 494.391 208.842L495.333 216.728L503.218 215.785C507.573 215.265 511.526 218.373 512.046 222.728C512.567 227.083 509.458 231.035 505.103 231.556L497.218 232.498L498.16 240.383C498.681 244.738 495.572 248.691 491.217 249.211Z" fill="#AE1100"/>
<path d="M417.9 307.565C413.545 308.086 409.593 304.978 409.072 300.623L408.13 292.737L400.245 293.68C395.89 294.2 391.938 291.092 391.417 286.737C390.897 282.382 394.005 278.43 398.36 277.909L406.245 276.967L405.303 269.082C404.782 264.727 407.891 260.774 412.246 260.254C416.601 259.733 420.553 262.842 421.073 267.197L422.016 275.082L429.901 274.14C434.256 273.619 438.208 276.728 438.729 281.082C439.249 285.437 436.141 289.39 431.786 289.91L423.901 290.853L424.843 298.738C425.363 303.093 422.255 307.045 417.9 307.565Z" fill="#AE1100"/>
<path d="M363.31 314.09C358.955 314.61 355.003 311.502 354.483 307.147L353.54 299.262L345.655 300.204C341.3 300.725 337.348 297.616 336.827 293.261C336.307 288.906 339.415 284.954 343.77 284.434L351.655 283.491L350.713 275.606C350.192 271.251 353.301 267.299 357.656 266.778C362.011 266.258 365.963 269.366 366.483 273.721L367.426 281.606L375.311 280.664C379.666 280.144 383.618 283.252 384.139 287.607C384.659 291.962 381.551 295.914 377.196 296.435L369.311 297.377L370.253 305.262C370.774 309.617 367.665 313.569 363.31 314.09Z" fill="#AE1100"/>
<path d="M472.491 301.041C468.136 301.562 464.184 298.453 463.663 294.098L462.721 286.213L454.836 287.155C450.481 287.676 446.528 284.567 446.008 280.212C445.487 275.858 448.596 271.905 452.951 271.385L460.836 270.442L459.894 262.557C459.373 258.202 462.482 254.25 466.836 253.729C471.191 253.209 475.144 256.317 475.664 260.672L476.607 268.558L484.492 267.615C488.847 267.095 492.799 270.203 493.319 274.558C493.84 278.913 490.732 282.865 486.377 283.386L478.491 284.328L479.434 292.213C479.954 296.568 476.846 300.521 472.491 301.041Z" fill="#AE1100"/>
<path d="M127.331 249.88C122.976 250.4 119.024 247.292 118.503 242.937L117.561 235.052L109.675 235.994C105.32 236.515 101.368 233.406 100.848 229.051C100.327 224.696 103.436 220.744 107.791 220.224L115.676 219.281L114.733 211.396C114.213 207.041 117.321 203.089 121.676 202.568C126.031 202.048 129.984 205.156 130.504 209.511L131.446 217.396L139.332 216.454C143.687 215.934 147.639 219.042 148.159 223.397C148.68 227.752 145.571 231.704 141.216 232.225L133.331 233.167L134.274 241.052C134.794 245.407 131.686 249.359 127.331 249.88Z" fill="#AE1100"/>
<path d="M236.512 236.832C232.157 237.353 228.205 234.244 227.685 229.889L226.742 222.004L218.857 222.946C214.502 223.467 210.55 220.358 210.029 216.003C209.509 211.649 212.617 207.696 216.972 207.176L224.857 206.233L223.915 198.348C223.395 193.993 226.503 190.041 230.858 189.52C235.213 189 239.165 192.108 239.686 196.463L240.628 204.349L248.513 203.406C252.868 202.886 256.82 205.994 257.341 210.349C257.861 214.704 254.753 218.656 250.398 219.177L242.513 220.119L243.455 228.004C243.976 232.359 240.867 236.312 236.512 236.832Z" fill="#AE1100"/>
<path d="M181.921 243.356C177.566 243.876 173.613 240.768 173.093 236.413L172.15 228.527L164.265 229.47C159.91 229.99 155.958 226.882 155.438 222.527C154.917 218.172 158.026 214.22 162.38 213.699L170.266 212.757L169.323 204.872C168.803 200.517 171.911 196.564 176.266 196.044C180.621 195.523 184.573 198.632 185.094 202.987L186.036 210.872L193.921 209.93C198.276 209.409 202.229 212.518 202.749 216.873C203.27 221.227 200.161 225.18 195.806 225.7L187.921 226.643L188.863 234.528C189.384 238.883 186.275 242.835 181.921 243.356Z" fill="#AE1100"/>
<path d="M454.873 210.734C450.518 211.255 446.566 208.146 446.045 203.792L445.103 195.906L437.217 196.849C432.862 197.369 428.91 194.261 428.39 189.906C427.869 185.551 430.978 181.599 435.333 181.078L443.218 180.136L442.275 172.25C441.755 167.896 444.863 163.943 449.218 163.423C453.573 162.902 457.526 166.011 458.046 170.366L458.988 178.251L466.874 177.309C471.229 176.788 475.181 179.897 475.701 184.251C476.222 188.606 473.113 192.559 468.758 193.079L460.873 194.021L461.816 201.907C462.336 206.262 459.228 210.214 454.873 210.734Z" fill="#AE1100"/>
<path d="M291.102 230.308C286.747 230.828 282.795 227.72 282.275 223.365L281.332 215.48L273.447 216.422C269.092 216.942 265.14 213.834 264.619 209.479C264.099 205.124 267.207 201.172 271.562 200.651L279.447 199.709L278.505 191.824C277.984 187.469 281.093 183.517 285.448 182.996C289.803 182.476 293.755 185.584 294.275 189.939L295.218 197.824L303.103 196.882C307.458 196.361 311.41 199.47 311.931 203.825C312.451 208.18 309.343 212.132 304.988 212.652L297.103 213.595L298.045 221.48C298.566 225.835 295.457 229.787 291.102 230.308Z" fill="#AE1100"/>
<path d="M400.283 217.259C395.928 217.779 391.976 214.671 391.455 210.316L390.513 202.431L382.628 203.373C378.273 203.894 374.32 200.785 373.8 196.43C373.279 192.075 376.388 188.123 380.743 187.603L388.628 186.66L387.686 178.775C387.165 174.42 390.274 170.468 394.628 169.947C398.983 169.427 402.936 172.535 403.456 176.89L404.399 184.775L412.284 183.833C416.639 183.312 420.591 186.421 421.111 190.776C421.632 195.131 418.524 199.083 414.169 199.603L406.283 200.546L407.226 208.431C407.746 212.786 404.638 216.738 400.283 217.259Z" fill="#AE1100"/>
<path d="M345.692 223.783C341.337 224.304 337.385 221.195 336.864 216.84L335.922 208.955L328.037 209.898C323.682 210.418 319.73 207.31 319.209 202.955C318.689 198.6 321.797 194.647 326.152 194.127L334.037 193.185L333.095 185.299C332.574 180.944 335.683 176.992 340.038 176.472C344.393 175.951 348.345 179.06 348.865 183.415L349.808 191.3L357.693 190.357C362.048 189.837 366 192.945 366.521 197.3C367.041 201.655 363.933 205.607 359.578 206.128L351.693 207.07L352.635 214.956C353.155 219.31 350.047 223.263 345.692 223.783Z" fill="#AE1100"/>
<path d="M509.464 204.21C505.109 204.73 501.156 201.622 500.636 197.267L499.693 189.382L491.808 190.324C487.453 190.845 483.501 187.736 482.981 183.381C482.46 179.026 485.568 175.074 489.923 174.554L497.809 173.611L496.866 165.726C496.346 161.371 499.454 157.419 503.809 156.898C508.164 156.378 512.116 159.486 512.637 163.841L513.579 171.727L521.464 170.784C525.819 170.264 529.772 173.372 530.292 177.727C530.813 182.082 527.704 186.034 523.349 186.555L515.464 187.497L516.406 195.382C516.927 199.737 513.818 203.69 509.464 204.21Z" fill="#AE1100"/>
<path d="M72.7409 256.404C68.3859 256.925 64.4337 253.816 63.9132 249.461L62.9708 241.576L55.0855 242.519C50.7306 243.039 46.7783 239.931 46.2579 235.576C45.7374 231.221 48.8458 227.269 53.2007 226.748L61.086 225.806L60.1436 217.92C59.6231 213.565 62.7316 209.613 67.0865 209.093C71.4414 208.572 75.3937 211.681 75.9141 216.036L76.8565 223.921L84.7418 222.978C89.0967 222.458 93.049 225.566 93.5695 229.921C94.0899 234.276 90.9815 238.229 86.6266 238.749L78.7413 239.691L79.6837 247.577C80.2042 251.932 77.0958 255.884 72.7409 256.404Z" fill="#AE1100"/>
<path d="M90.9 210.677C86.5451 211.197 82.5928 208.089 82.0724 203.734L81.13 195.849L73.2447 196.791C68.8898 197.312 64.9375 194.203 64.417 189.848C63.8966 185.493 67.005 181.541 71.3599 181.021L79.2452 180.078L78.3028 172.193C77.7823 167.838 80.8907 163.886 85.2456 163.365C89.6006 162.845 93.5528 165.953 94.0733 170.308L95.0157 178.193L102.901 177.251C107.256 176.73 111.208 179.839 111.729 184.194C112.249 188.549 109.141 192.501 104.786 193.021L96.9005 193.964L97.8429 201.849C98.3634 206.204 95.255 210.156 90.9 210.677Z" fill="#AE1100"/>
<path d="M200.081 197.628C195.726 198.148 191.774 195.04 191.253 190.685L190.311 182.8L182.425 183.742C178.07 184.263 174.118 181.154 173.598 176.799C173.077 172.444 176.186 168.492 180.541 167.972L188.426 167.029L187.483 159.144C186.963 154.789 190.071 150.837 194.426 150.316C198.781 149.796 202.734 152.904 203.254 157.259L204.196 165.144L212.082 164.202C216.437 163.682 220.389 166.79 220.909 171.145C221.43 175.5 218.321 179.452 213.966 179.973L206.081 180.915L207.024 188.8C207.544 193.155 204.436 197.107 200.081 197.628Z" fill="#AE1100"/>
<path d="M145.491 204.152C141.136 204.673 137.184 201.564 136.663 197.21L135.721 189.324L127.836 190.267C123.481 190.787 119.528 187.679 119.008 183.324C118.487 178.969 121.596 175.017 125.951 174.496L133.836 173.554L132.894 165.668C132.373 161.314 135.482 157.361 139.836 156.841C144.191 156.32 148.144 159.429 148.664 163.784L149.607 171.669L157.492 170.727C161.847 170.206 165.799 173.314 166.319 177.669C166.84 182.024 163.732 185.977 159.377 186.497L151.491 187.439L152.434 195.325C152.954 199.68 149.846 203.632 145.491 204.152Z" fill="#AE1100"/>
<path d="M418.442 171.53C414.087 172.051 410.135 168.942 409.614 164.587L408.672 156.702L400.787 157.645C396.432 158.165 392.48 155.057 391.959 150.702C391.439 146.347 394.547 142.395 398.902 141.874L406.787 140.932L405.845 133.046C405.324 128.691 408.433 124.739 412.788 124.219C417.143 123.698 421.095 126.807 421.615 131.162L422.558 139.047L430.443 138.104C434.798 137.584 438.75 140.692 439.271 145.047C439.791 149.402 436.683 153.355 432.328 153.875L424.443 154.817L425.385 162.703C425.905 167.058 422.797 171.01 418.442 171.53Z" fill="#AE1100"/>
<path d="M254.671 191.104C250.316 191.624 246.363 188.516 245.843 184.161L244.9 176.275L237.015 177.218C232.66 177.738 228.708 174.63 228.188 170.275C227.667 165.92 230.776 161.968 235.13 161.447L243.016 160.505L242.073 152.62C241.553 148.265 244.661 144.312 249.016 143.792C253.371 143.271 257.323 146.38 257.844 150.735L258.786 158.62L266.671 157.678C271.026 157.157 274.979 160.266 275.499 164.621C276.02 168.975 272.911 172.928 268.556 173.448L260.671 174.391L261.613 182.276C262.134 186.631 259.025 190.583 254.671 191.104Z" fill="#AE1100"/>
<path d="M363.852 178.055C359.497 178.575 355.545 175.467 355.025 171.112L354.082 163.227L346.197 164.169C341.842 164.689 337.89 161.581 337.369 157.226C336.849 152.871 339.957 148.919 344.312 148.398L352.197 147.456L351.255 139.571C350.734 135.216 353.843 131.264 358.198 130.743C362.553 130.223 366.505 133.331 367.025 137.686L367.968 145.571L375.853 144.629C380.208 144.108 384.16 147.217 384.681 151.572C385.201 155.927 382.093 159.879 377.738 160.399L369.853 161.342L370.795 169.227C371.316 173.582 368.207 177.534 363.852 178.055Z" fill="#AE1100"/>
<path d="M309.262 184.579C304.907 185.1 300.955 181.991 300.435 177.636L299.492 169.751L291.607 170.693C287.252 171.214 283.3 168.105 282.779 163.751C282.259 159.396 285.367 155.443 289.722 154.923L297.607 153.98L296.665 146.095C296.145 141.74 299.253 137.788 303.608 137.268C307.963 136.747 311.915 139.855 312.436 144.21L313.378 152.096L321.263 151.153C325.618 150.633 329.57 153.741 330.091 158.096C330.611 162.451 327.503 166.403 323.148 166.924L315.263 167.866L316.205 175.751C316.726 180.106 313.617 184.059 309.262 184.579Z" fill="#AE1100"/>
<path d="M473.032 165.006C468.677 165.526 464.725 162.418 464.204 158.063L463.262 150.178L455.377 151.12C451.022 151.641 447.069 148.532 446.549 144.177C446.028 139.822 449.137 135.87 453.492 135.35L461.377 134.407L460.435 126.522C459.914 122.167 463.023 118.215 467.377 117.694C471.732 117.174 475.685 120.282 476.205 124.637L477.148 132.522L485.033 131.58C489.388 131.06 493.34 134.168 493.86 138.523C494.381 142.878 491.273 146.83 486.918 147.351L479.032 148.293L479.975 156.178C480.495 160.533 477.387 164.485 473.032 165.006Z" fill="#AE1100"/>
<path d="M36.3102 217.201C31.9553 217.722 28.003 214.613 27.4825 210.258L26.5401 202.373L18.6549 203.315C14.2999 203.836 10.3477 200.728 9.82719 196.373C9.30672 192.018 12.4152 188.065 16.7701 187.545L24.6553 186.603L23.7129 178.717C23.1925 174.362 26.3009 170.41 30.6558 169.89C35.0107 169.369 38.963 172.478 39.4835 176.832L40.4259 184.718L48.3111 183.775C52.6661 183.255 56.6183 186.363 57.1388 190.718C57.6593 195.073 54.5508 199.025 50.1959 199.546L42.3107 200.488L43.2531 208.374C43.7735 212.728 40.6651 216.681 36.3102 217.201Z" fill="#AE1100"/>
<path d="M115.816 159.711C111.461 160.231 107.509 157.123 106.988 152.768L106.046 144.883L98.1607 145.825C93.8058 146.346 89.8535 143.237 89.3331 138.882C88.8126 134.527 91.921 130.575 96.2759 130.055L104.161 129.112L103.219 121.227C102.698 116.872 105.807 112.92 110.162 112.399C114.517 111.879 118.469 114.987 118.989 119.342L119.932 127.228L127.817 126.285C132.172 125.765 136.124 128.873 136.645 133.228C137.165 137.583 134.057 141.535 129.702 142.056L121.817 142.998L122.759 150.883C123.279 155.238 120.171 159.191 115.816 159.711Z" fill="#AE1100"/>
<path d="M224.997 146.663C220.642 147.184 216.69 144.075 216.169 139.72L215.227 131.835L207.341 132.777C202.986 133.298 199.034 130.189 198.514 125.835C197.993 121.48 201.102 117.527 205.457 117.007L213.342 116.064L212.399 108.179C211.879 103.824 214.987 99.872 219.342 99.3515C223.697 98.831 227.65 101.939 228.17 106.294L229.112 114.18L236.998 113.237C241.353 112.717 245.305 115.825 245.825 120.18C246.346 124.535 243.237 128.487 238.882 129.008L230.997 129.95L231.94 137.835C232.46 142.19 229.352 146.143 224.997 146.663Z" fill="#AE1100"/>
<path d="M170.407 153.188C166.052 153.708 162.1 150.6 161.579 146.245L160.637 138.359L152.752 139.302C148.397 139.822 144.444 136.714 143.924 132.359C143.403 128.004 146.512 124.052 150.867 123.531L158.752 122.589L157.81 114.704C157.289 110.349 160.398 106.396 164.752 105.876C169.107 105.355 173.06 108.464 173.58 112.819L174.523 120.704L182.408 119.762C186.763 119.241 190.715 122.35 191.235 126.705C191.756 131.059 188.648 135.012 184.293 135.532L176.407 136.475L177.35 144.36C177.87 148.715 174.762 152.667 170.407 153.188Z" fill="#AE1100"/>
<path d="M443.358 120.565C439.003 121.086 435.051 117.978 434.53 113.623L433.588 105.737L425.703 106.68C421.348 107.2 417.396 104.092 416.875 99.7369C416.355 95.3819 419.463 91.4297 423.818 90.9092L431.703 89.9668L430.761 82.0815C430.24 77.7266 433.349 73.7743 437.704 73.2539C442.059 72.7334 446.011 75.8418 446.531 80.1967L447.474 88.082L455.359 87.1396C459.714 86.6191 463.666 89.7276 464.187 94.0825C464.707 98.4374 461.599 102.39 457.244 102.91L449.359 103.853L450.301 111.738C450.821 116.093 447.713 120.045 443.358 120.565Z" fill="#AE1100"/>
<path d="M279.587 140.139C275.232 140.659 271.279 137.551 270.759 133.196L269.816 125.311L261.931 126.253C257.576 126.773 253.624 123.665 253.104 119.31C252.583 114.955 255.692 111.003 260.046 110.482L267.932 109.54L266.989 101.655C266.469 97.2999 269.577 93.3476 273.932 92.8271C278.287 92.3066 282.239 95.4151 282.76 99.77L283.702 107.655L291.588 106.713C295.942 106.192 299.895 109.301 300.415 113.656C300.936 118.011 297.827 121.963 293.472 122.483L285.587 123.426L286.529 131.311C287.05 135.666 283.941 139.618 279.587 140.139Z" fill="#AE1100"/>
<path d="M388.768 127.09C384.413 127.61 380.461 124.502 379.941 120.147L378.998 112.262L371.113 113.204C366.758 113.725 362.806 110.616 362.285 106.261C361.765 101.906 364.873 97.9541 369.228 97.4336L377.113 96.4912L376.171 88.6059C375.65 84.251 378.759 80.2987 383.114 79.7783C387.469 79.2578 391.421 82.3662 391.941 86.7211L392.884 94.6064L400.769 93.664C405.124 93.1435 409.076 96.252 409.597 100.607C410.117 104.962 407.009 108.914 402.654 109.435L394.769 110.377L395.711 118.262C396.232 122.617 393.123 126.569 388.768 127.09Z" fill="#AE1100"/>
<path d="M334.178 133.614C329.823 134.135 325.871 131.026 325.351 126.671L324.408 118.786L316.523 119.729C312.168 120.249 308.216 117.141 307.695 112.786C307.175 108.431 310.283 104.478 314.638 103.958L322.523 103.016L321.581 95.1304C321.061 90.7754 324.169 86.8232 328.524 86.3027C332.879 85.7822 336.831 88.8906 337.352 93.2456L338.294 101.131L346.179 100.188C350.534 99.668 354.486 102.776 355.007 107.131C355.527 111.486 352.419 115.438 348.064 115.959L340.179 116.901L341.121 124.787C341.642 129.142 338.533 133.094 334.178 133.614Z" fill="#AE1100"/>
<path d="M497.949 114.041C493.594 114.562 489.642 111.453 489.121 107.098L488.179 99.2129L480.294 100.155C475.939 100.676 471.986 97.5674 471.466 93.2124C470.945 88.8575 474.054 84.9053 478.409 84.3848L486.294 83.4424L485.352 75.5571C484.831 71.2022 487.94 67.2499 492.294 66.7294C496.649 66.209 500.602 69.3174 501.122 73.6723L502.065 81.5576L509.95 80.6152C514.305 80.0947 518.257 83.2031 518.777 87.5581C519.298 91.913 516.19 95.8653 511.835 96.3857L503.949 97.3281L504.892 105.213C505.412 109.568 502.304 113.521 497.949 114.041Z" fill="#AE1100"/>
<path d="M61.2262 166.235C56.8713 166.756 52.919 163.647 52.3985 159.293L51.4561 151.407L43.5709 152.35C39.216 152.87 35.2637 149.762 34.7432 145.407C34.2227 141.052 37.3312 137.1 41.6861 136.579L49.5713 135.637L48.629 127.751C48.1085 123.397 51.2169 119.444 55.5718 118.924C59.9267 118.403 63.879 121.512 64.3995 125.867L65.3419 133.752L73.2272 132.81C77.5821 132.289 81.5344 135.397 82.0548 139.752C82.5753 144.107 79.4669 148.06 75.1119 148.58L67.2267 149.522L68.1691 157.408C68.6896 161.763 65.5811 165.715 61.2262 166.235Z" fill="#AE1100"/>
<path d="M83.9 120.677C79.5451 121.197 75.5928 118.089 75.0724 113.734L74.13 105.849L66.2447 106.791C61.8898 107.312 57.9375 104.203 57.417 99.8482C56.8966 95.4933 60.005 91.541 64.3599 91.0205L72.2452 90.0781L71.3028 82.1929C70.7823 77.8379 73.8907 73.8857 78.2456 73.3652C82.6006 72.8447 86.5528 75.9531 87.0733 80.3081L88.0157 88.1933L95.901 87.2509C100.256 86.7305 104.208 89.8389 104.729 94.1938C105.249 98.5487 102.141 102.501 97.7858 103.021L89.9005 103.964L90.8429 111.849C91.3634 116.204 88.255 120.156 83.9 120.677Z" fill="#AE1100"/>
<path d="M193.081 107.628C188.726 108.148 184.774 105.04 184.253 100.685L183.311 92.7998L175.425 93.7422C171.07 94.2627 167.118 91.1543 166.598 86.7994C166.077 82.4444 169.186 78.4922 173.541 77.9717L181.426 77.0293L180.483 69.144C179.963 64.7891 183.071 60.8368 187.426 60.3164C191.781 59.7959 195.734 62.9043 196.254 67.2592L197.196 75.1445L205.082 74.2021C209.437 73.6816 213.389 76.7901 213.909 81.145C214.43 85.4999 211.321 89.4522 206.966 89.9726L199.081 90.915L200.024 98.8003C200.544 103.155 197.436 107.107 193.081 107.628Z" fill="#AE1100"/>
<path d="M138.491 114.152C134.136 114.673 130.184 111.564 129.663 107.21L128.721 99.3242L120.836 100.267C116.481 100.787 112.528 97.6787 112.008 93.3238C111.487 88.9689 114.596 85.0166 118.951 84.4961L126.836 83.5537L125.894 75.6684C125.373 71.3135 128.482 67.3612 132.836 66.8408C137.191 66.3203 141.144 69.4287 141.664 73.7836L142.607 81.6689L150.492 80.7265C154.847 80.206 158.799 83.3145 159.319 87.6694C159.84 92.0243 156.732 95.9766 152.377 96.4971L144.491 97.4394L145.434 105.325C145.954 109.68 142.846 113.632 138.491 114.152Z" fill="#AE1100"/>
<path d="M411.442 81.5303C407.087 82.0508 403.135 78.9424 402.614 74.5874L401.672 66.7022L393.787 67.6446C389.432 68.165 385.48 65.0566 384.959 60.7017C384.439 56.3468 387.547 52.3945 391.902 51.874L399.787 50.9316L398.845 43.0464C398.324 38.6915 401.433 34.7392 405.788 34.2187C410.143 33.6982 414.095 36.8067 414.615 41.1616L415.558 49.0468L423.443 48.1044C427.798 47.584 431.75 50.6924 432.271 55.0473C432.791 59.4022 429.683 63.3545 425.328 63.875L417.443 64.8174L418.385 72.7026C418.905 77.0576 415.797 81.0098 411.442 81.5303Z" fill="#AE1100"/>
<path d="M247.671 101.104C243.316 101.624 239.363 98.5156 238.843 94.1607L237.9 86.2754L230.015 87.2178C225.66 87.7383 221.708 84.6299 221.188 80.2749C220.667 75.92 223.776 71.9678 228.13 71.4473L236.016 70.5049L235.073 62.6196C234.553 58.2647 237.661 54.3124 242.016 53.7919C246.371 53.2715 250.323 56.3799 250.844 60.7348L251.786 68.6201L259.671 67.6777C264.026 67.1572 267.979 70.2656 268.499 74.6206C269.02 78.9755 265.911 82.9278 261.556 83.4482L253.671 84.3906L254.613 92.2759C255.134 96.6308 252.025 100.583 247.671 101.104Z" fill="#AE1100"/>
<path d="M356.852 88.0547C352.497 88.5752 348.545 85.4668 348.025 81.1119L347.082 73.2266L339.197 74.169C334.842 74.6895 330.89 71.581 330.369 67.2261C329.849 62.8712 332.957 58.9189 337.312 58.3985L345.197 57.4561L344.255 49.5708C343.734 45.2159 346.843 41.2636 351.198 40.7431C355.553 40.2226 359.505 43.3311 360.025 47.686L360.968 55.5713L368.853 54.6289C373.208 54.1084 377.16 57.2168 377.681 61.5717C378.201 65.9266 375.093 69.8789 370.738 70.3994L362.853 71.3418L363.795 79.2271C364.316 83.582 361.207 87.5343 356.852 88.0547Z" fill="#AE1100"/>
<path d="M302.262 94.5791C297.907 95.0996 293.955 91.9912 293.435 87.6363L292.492 79.751L284.607 80.6934C280.252 81.2139 276.3 78.1054 275.779 73.7505C275.259 69.3956 278.367 65.4433 282.722 64.9229L290.607 63.9805L289.665 56.0952C289.145 51.7403 292.253 47.788 296.608 47.2675C300.963 46.7471 304.915 49.8555 305.436 54.2104L306.378 62.0957L314.263 61.1533C318.618 60.6328 322.57 63.7412 323.091 68.0961C323.611 72.4511 320.503 76.4033 316.148 76.9238L308.263 77.8662L309.205 85.7515C309.726 90.1064 306.617 94.0587 302.262 94.5791Z" fill="#AE1100"/>
<path d="M466.032 75.0059C461.677 75.5264 457.725 72.4179 457.204 68.063L456.262 60.1778L448.377 61.1202C444.022 61.6406 440.069 58.5322 439.549 54.1773C439.028 49.8224 442.137 45.8701 446.492 45.3496L454.377 44.4072L453.435 36.522C452.914 32.167 456.023 28.2148 460.377 27.6943C464.732 27.1738 468.685 30.2822 469.205 34.6372L470.148 42.5224L478.033 41.58C482.388 41.0596 486.34 44.168 486.86 48.5229C487.381 52.8778 484.273 56.8301 479.918 57.3506L472.032 58.293L472.975 66.1782C473.495 70.5331 470.387 74.4854 466.032 75.0059Z" fill="#AE1100"/>
<path d="M29.3102 127.201C24.9553 127.722 21.003 124.613 20.4825 120.258L19.5401 112.373L11.6549 113.315C7.29995 113.836 3.34767 110.728 2.82719 106.373C2.30672 102.018 5.41515 98.0654 9.77007 97.5449L17.6553 96.6025L16.7129 88.7173C16.1925 84.3624 19.3009 80.4101 23.6558 79.8896C28.0107 79.3691 31.963 82.4776 32.4835 86.8325L33.4259 94.7177L41.3111 93.7753C45.6661 93.2549 49.6183 96.3633 50.1388 100.718C50.6593 105.073 47.5508 109.025 43.1959 109.546L35.3107 110.488L36.2531 118.374C36.7735 122.728 33.6651 126.681 29.3102 127.201Z" fill="#AE1100"/>
<path d="M108.816 69.711C104.461 70.2315 100.509 67.123 99.9884 62.7681L99.046 54.8828L91.1607 55.8252C86.8058 56.3457 82.8535 53.2373 82.3331 48.8824C81.8126 44.5275 84.921 40.5752 89.2759 40.0547L97.1612 39.1123L96.2188 31.227C95.6983 26.8721 98.8068 22.9198 103.162 22.3994C107.517 21.8789 111.469 24.9873 111.989 29.3422L112.932 37.2275L120.817 36.2851C125.172 35.7646 129.124 38.8731 129.645 43.228C130.165 47.5829 127.057 51.5352 122.702 52.0556L114.817 52.998L115.759 60.8833C116.279 65.2382 113.171 69.1905 108.816 69.711Z" fill="#AE1100"/>
<path d="M217.997 56.6631C213.642 57.1836 209.69 54.0752 209.169 49.7203L208.227 41.835L200.341 42.7774C195.986 43.2979 192.034 40.1894 191.514 35.8345C190.993 31.4796 194.102 27.5273 198.457 27.0068L206.342 26.0645L205.399 18.1792C204.879 13.8243 207.987 9.87199 212.342 9.35152C216.697 8.83104 220.65 11.9395 221.17 16.2944L222.112 24.1797L229.998 23.2373C234.353 22.7168 238.305 25.8252 238.825 30.1801C239.346 34.535 236.237 38.4873 231.882 39.0078L223.997 39.9502L224.94 47.8355C225.46 52.1904 222.352 56.1427 217.997 56.6631Z" fill="#AE1100"/>
<path d="M163.407 63.1866C159.052 63.707 155.1 60.5986 154.579 56.2437L153.637 48.3584L145.752 49.3008C141.397 49.8213 137.444 46.7129 136.924 42.358C136.403 38.003 139.512 34.0508 143.867 33.5303L151.752 32.5879L150.81 24.7026C150.289 20.3477 153.398 16.3954 157.752 15.875C162.107 15.3545 166.06 18.4629 166.58 22.8178L167.523 30.7031L175.408 29.7607C179.763 29.2402 183.715 32.3486 184.235 36.7036C184.756 41.0585 181.648 45.0108 177.293 45.5312L169.407 46.4736L170.35 54.3589C170.87 58.7138 167.762 62.6661 163.407 63.1866Z" fill="#AE1100"/>
<path d="M272.587 50.1387C268.232 50.6592 264.279 47.5508 263.759 43.1958L262.816 35.3106L254.931 36.253C250.576 36.7734 246.624 33.665 246.104 29.3101C245.583 24.9552 248.692 21.0029 253.046 20.4824L260.932 19.54L259.989 11.6548C259.469 7.29986 262.577 3.34757 266.932 2.8271C271.287 2.30663 275.239 5.41506 275.76 9.76997L276.702 17.6552L284.588 16.7128C288.942 16.1924 292.895 19.3008 293.415 23.6557C293.936 28.0106 290.827 31.9629 286.472 32.4834L278.587 33.4258L279.529 41.311C280.05 45.666 276.941 49.6182 272.587 50.1387Z" fill="#AE1100"/>
<path d="M54.2262 76.2354C49.8713 76.7559 45.919 73.6474 45.3985 69.2925L44.4561 61.4073L36.5709 62.3497C32.216 62.8701 28.2637 59.7617 27.7432 55.4068C27.2227 51.0519 30.3312 47.0996 34.6861 46.5791L42.5713 45.6367L41.629 37.7514C41.1085 33.3965 44.2169 29.4443 48.5718 28.9238C52.9267 28.4033 56.879 31.5117 57.3995 35.8667L58.3419 43.7519L66.2272 42.8095C70.5821 42.2891 74.5344 45.3975 75.0548 49.7524C75.5753 54.1073 72.4669 58.0596 68.1119 58.5801L60.2267 59.5225L61.1691 67.4077C61.6896 71.7626 58.5811 75.7149 54.2262 76.2354Z" fill="#AE1100"/>
</svg>
