<svg width="85" height="85" viewBox="0 0 85 85" fill="none" xmlns="http://www.w3.org/2000/svg">
<path d="M78.9565 78.9562C72.1581 85.7546 61.1357 85.7546 54.3373 78.9562L42.0276 66.6466L29.718 78.9562C22.9196 85.7546 11.8972 85.7546 5.09878 78.9562C-1.69963 72.1578 -1.69963 61.1354 5.09878 54.337L17.4084 42.0273L5.09878 29.7177C-1.69963 22.9193 -1.69963 11.8969 5.09878 5.09848C11.8972 -1.69993 22.9196 -1.69993 29.718 5.09848L42.0276 17.4081L54.3373 5.09848C61.1357 -1.69994 72.1581 -1.69994 78.9565 5.09848C85.7549 11.8969 85.7549 22.9193 78.9565 29.7177L66.6469 42.0273L78.9565 54.337C85.7549 61.1354 85.7549 72.1578 78.9565 78.9562Z" fill="#AE1100"/>
</svg>
