<svg width="572" height="48" viewBox="0 0 572 48" fill="none" xmlns="http://www.w3.org/2000/svg">
<path d="M114.132 0.620117L115.521 18.4546" stroke="#FFFAEE" stroke-width="2.7"/>
<path d="M106.595 5.52246L123.127 13.2058" stroke="#FFFAEE" stroke-width="2.7"/>
<path d="M107.29 14.4395L122.432 4.28827" stroke="#FFFAEE" stroke-width="2.7"/>
<path d="M211.132 28.6201L212.521 46.4546" stroke="#FFFAEE" stroke-width="2.7"/>
<path d="M203.595 33.5225L220.127 41.2058" stroke="#FFFAEE" stroke-width="2.7"/>
<path d="M204.29 42.4395L219.432 32.2883" stroke="#FFFAEE" stroke-width="2.7"/>
<path d="M402.132 10.6201L403.521 28.4546" stroke="#FFFAEE" stroke-width="2.7"/>
<path d="M394.595 15.5225L411.127 23.2058" stroke="#FFFAEE" stroke-width="2.7"/>
<path d="M395.29 24.4395L410.432 14.2883" stroke="#FFFAEE" stroke-width="2.7"/>
<path d="M8.13159 14.6201L9.52115 32.4546" stroke="#FFFAEE" stroke-width="2.7"/>
<path d="M0.595459 19.5225L17.1271 27.2058" stroke="#FFFAEE" stroke-width="2.7"/>
<path d="M1.29028 28.4395L16.4324 18.2883" stroke="#FFFAEE" stroke-width="2.7"/>
<path d="M562.132 1.62109L563.521 19.4556" stroke="#FFFAEE" stroke-width="2.7"/>
<path d="M554.595 6.52344L571.127 14.2068" stroke="#FFFAEE" stroke-width="2.7"/>
<path d="M555.29 15.4404L570.432 5.28925" stroke="#FFFAEE" stroke-width="2.7"/>
</svg>
