<svg width="228" height="310" viewBox="0 0 228 310" fill="none" xmlns="http://www.w3.org/2000/svg">
<path d="M103.813 128.927C96.2009 130.995 88.3539 126.501 86.286 118.889L82.5418 105.106L68.7593 108.851C61.1475 110.918 53.3005 106.424 51.2327 98.8123C49.1648 91.2004 53.6591 83.3535 61.2709 81.2856L75.0534 77.5414L71.3092 63.7589C69.2413 56.147 73.7356 48.3001 81.3474 46.2322C88.9593 44.1643 96.8063 48.6586 98.8741 56.2705L102.618 70.0529L116.401 66.3087C124.013 64.2408 131.86 68.7351 133.928 76.347C135.995 83.9588 131.501 91.8058 123.889 93.8737L110.107 97.6179L113.851 111.4C115.919 119.012 111.425 126.859 103.813 128.927Z" fill="#FFFAEE"/>
<path d="M99.7084 222.912C93.6986 226.491 85.9252 224.521 82.346 218.511L75.8654 207.629L64.9836 214.11C58.9738 217.689 51.2004 215.719 47.6212 209.709C44.042 203.699 46.0125 195.925 52.0223 192.346L62.904 185.866L56.4234 174.984C52.8442 168.974 54.8146 161.201 60.8245 157.621C66.8343 154.042 74.6077 156.013 78.1869 162.023L84.6675 172.904L95.5493 166.424C101.559 162.845 109.333 164.815 112.912 170.825C116.491 176.835 114.52 184.608 108.511 188.187L97.6289 194.668L104.11 205.55C107.689 211.559 105.718 219.333 99.7084 222.912Z" fill="#FFFAEE"/>
<path d="M197.454 114.977L178.631 182.889" stroke="#FFFAEE" stroke-width="12.4557"/>
<path d="M162.958 123.004L213.851 173.675" stroke="#FFFAEE" stroke-width="12.4557"/>
<path d="M153.545 156.96L223.263 139.719" stroke="#FFFAEE" stroke-width="12.4557"/>
<path d="M24.1899 248.62L39.0115 303.435" stroke="#FFFAEE" stroke-width="10.0361"/>
<path d="M3.56519 268.345L59.6506 282.591" stroke="#FFFAEE" stroke-width="10.0361"/>
<path d="M10.9753 295.752L52.2392 255.183" stroke="#FFFAEE" stroke-width="10.0361"/>
<path d="M171.364 4.75195L182.003 44.0988" stroke="#FFFAEE" stroke-width="7.20409"/>
<path d="M156.559 18.9102L196.818 29.1361" stroke="#FFFAEE" stroke-width="7.20409"/>
<path d="M161.878 38.584L191.498 9.46305" stroke="#FFFAEE" stroke-width="7.20409"/>
</svg>
