<svg width="227" height="289" viewBox="0 0 227 289" fill="none" xmlns="http://www.w3.org/2000/svg">
<path d="M32.0547 74.6156C26.1536 72.6814 22.9379 66.3296 24.8721 60.4286L28.3743 49.7438L17.6895 46.2415C11.7885 44.3073 8.57271 37.9555 10.5069 32.0545C12.4412 26.1534 18.7929 22.9376 24.694 24.8719L35.3788 28.3741L38.8811 17.6893C40.8153 11.7882 47.1671 8.57249 53.0681 10.5067C58.9692 12.441 62.1849 18.7927 60.2507 24.6938L56.7485 35.3786L67.4333 38.8808C73.3343 40.8151 76.5501 47.1668 74.6159 53.0679C72.6816 58.969 66.3299 62.1847 60.4288 60.2505L49.744 56.7482L46.2417 67.4331C44.3075 73.3341 37.9557 76.5499 32.0547 74.6156Z" fill="#FFFAEE"/>
<path d="M153.581 186.685C146.537 189.476 138.564 186.028 135.773 178.984L130.72 166.229L117.966 171.282C110.922 174.073 102.949 170.625 100.159 163.581C97.368 156.537 100.816 148.564 107.86 145.773L120.615 140.72L115.562 127.966C112.771 120.922 116.219 112.949 123.263 110.159C130.307 107.368 138.28 110.816 141.071 117.86L146.123 130.615L158.878 125.562C165.922 122.771 173.895 126.219 176.685 133.263C179.476 140.307 176.028 148.28 168.984 151.071L156.229 156.123L161.282 168.878C164.073 175.922 160.625 183.895 153.581 186.685Z" fill="#FFFAEE"/>
<path d="M143.15 18.2822L133.448 53.2877" stroke="#FFFAEE" stroke-width="6.42028"/>
<path d="M125.369 22.4189L151.602 48.5375" stroke="#FFFAEE" stroke-width="6.42028"/>
<path d="M120.518 39.9219L156.453 31.0349" stroke="#FFFAEE" stroke-width="6.42028"/>
<path d="M51.3271 136.206L34.9989 195.116" stroke="#FFFAEE" stroke-width="10.8046"/>
<path d="M21.4019 143.169L65.5492 187.123" stroke="#FFFAEE" stroke-width="10.8046"/>
<path d="M13.2373 172.624L73.7129 157.668" stroke="#FFFAEE" stroke-width="10.8046"/>
<path d="M200.327 222.206L183.999 281.116" stroke="#FFFAEE" stroke-width="10.8046"/>
<path d="M170.402 229.169L214.549 273.123" stroke="#FFFAEE" stroke-width="10.8046"/>
<path d="M162.237 258.624L222.713 243.668" stroke="#FFFAEE" stroke-width="10.8046"/>
</svg>
