<svg width="531" height="356" viewBox="0 0 531 356" fill="none" xmlns="http://www.w3.org/2000/svg">
<circle cx="279" cy="436.08" r="279" fill="#FFFAEE"/>
<circle cx="279" cy="157.537" r="157.537" fill="#FFFAEE"/>
<path d="M212.789 102.481C212.789 104.46 212.399 106.419 211.642 108.247C210.885 110.076 209.775 111.737 208.375 113.136C206.976 114.535 205.315 115.645 203.487 116.403C201.658 117.16 199.699 117.55 197.72 117.55C195.741 117.55 193.782 117.16 191.954 116.403C190.125 115.645 188.464 114.535 187.065 113.136C185.666 111.737 184.556 110.076 183.798 108.247C183.041 106.419 182.651 104.46 182.651 102.481L189.899 102.481C189.899 103.508 190.102 104.525 190.495 105.474C190.888 106.423 191.464 107.285 192.19 108.011C192.916 108.737 193.778 109.313 194.727 109.706C195.676 110.099 196.693 110.302 197.72 110.302C198.747 110.302 199.764 110.099 200.713 109.706C201.662 109.313 202.524 108.737 203.25 108.011C203.976 107.285 204.552 106.423 204.945 105.474C205.338 104.525 205.541 103.508 205.541 102.481H212.789Z" fill="#12131D"/>
<path d="M337.905 103.481C337.905 105.46 337.515 107.419 336.758 109.247C336.001 111.076 334.891 112.737 333.492 114.136C332.092 115.535 330.431 116.645 328.603 117.403C326.775 118.16 324.815 118.55 322.836 118.55C320.857 118.55 318.898 118.16 317.07 117.403C315.242 116.645 313.58 115.535 312.181 114.136C310.782 112.737 309.672 111.076 308.915 109.247C308.157 107.419 307.768 105.46 307.768 103.481L315.016 103.481C315.016 104.508 315.218 105.525 315.611 106.474C316.004 107.423 316.58 108.285 317.306 109.011C318.032 109.737 318.895 110.313 319.843 110.706C320.792 111.099 321.809 111.302 322.836 111.302C323.863 111.302 324.88 111.099 325.829 110.706C326.778 110.313 327.64 109.737 328.366 109.011C329.093 108.285 329.669 107.423 330.062 106.474C330.455 105.525 330.657 104.508 330.657 103.481H337.905Z" fill="#12131D"/>
<path d="M99.9969 159.719C96.7473 159.725 96.1934 155.073 99.3535 154.315L264.581 114.711C266.176 114.329 267.746 115.423 267.94 117.052L272.62 156.361C272.814 157.989 271.544 159.421 269.904 159.424L99.9969 159.719Z" fill="#AE1100"/>
</svg>
