<svg width="23" height="23" viewBox="0 0 23 23" fill="none" xmlns="http://www.w3.org/2000/svg">
<path d="M21.358 20.6189C19.6403 22.4726 16.7451 22.5828 14.8914 20.8652L11.535 17.755L8.42491 21.1114C6.70724 22.9651 3.81207 23.0754 1.95838 21.3577C0.104686 19.6401 -0.0055765 16.7449 1.7121 14.8912L4.82223 11.5348L1.46582 8.42466C-0.38787 6.70698 -0.498133 3.81182 1.21954 1.95813C2.93722 0.104434 5.83238 -0.00582819 7.68608 1.71185L11.0425 4.82198L14.1526 1.46557C15.8703 -0.388122 18.7655 -0.498385 20.6191 1.21929C22.4728 2.93697 22.5831 5.83213 20.8654 7.68583L17.7553 11.0422L21.1117 14.1524C22.9654 15.87 23.0757 18.7652 21.358 20.6189Z" fill="#FFFAEE"/>
</svg>
