<svg width="212" height="212" viewBox="0 0 212 212" fill="none" xmlns="http://www.w3.org/2000/svg">
<path d="M93.6122 9.81757C96.328 -3.27201 115.023 -3.27197 117.738 9.81761L130.494 71.2969C131.491 76.1038 135.247 79.8598 140.054 80.8571L201.534 93.6127C214.623 96.3285 214.623 115.023 201.533 117.739L140.054 130.494C135.247 131.492 131.491 135.248 130.494 140.055L117.738 201.534C115.023 214.624 96.328 214.624 93.6122 201.534L80.8567 140.055C79.8593 135.248 76.1033 131.492 71.2964 130.494L9.81708 117.739C-3.2725 115.023 -3.27246 96.3285 9.81712 93.6127L71.2964 80.8571C76.1033 79.8598 79.8593 76.1038 80.8567 71.2969L93.6122 9.81757Z" fill="#FFFAEE"/>
</svg>
