<svg width="675" height="66" viewBox="0 0 675 66" fill="none" xmlns="http://www.w3.org/2000/svg">
<path d="M119.816 37.8213L122.334 20.1108" stroke="#FFFAEE" stroke-width="2.7"/>
<path d="M112.606 32.4502L129.591 25.831" stroke="#FFFAEE" stroke-width="2.7"/>
<path d="M113.865 23.5957L128.332 34.687" stroke="#FFFAEE" stroke-width="2.7"/>
<path d="M329.816 32.8213L332.334 15.1108" stroke="#FFFAEE" stroke-width="2.7"/>
<path d="M322.606 27.4502L339.591 20.831" stroke="#FFFAEE" stroke-width="2.7"/>
<path d="M323.865 18.5957L338.332 29.687" stroke="#FFFAEE" stroke-width="2.7"/>
<path d="M268.816 64.8213L271.334 47.1108" stroke="#FFFAEE" stroke-width="2.7"/>
<path d="M261.606 59.4502L278.591 52.831" stroke="#FFFAEE" stroke-width="2.7"/>
<path d="M262.865 50.5957L277.332 61.687" stroke="#FFFAEE" stroke-width="2.7"/>
<path d="M405.237 19.5664L407.755 1.85595" stroke="#FFFAEE" stroke-width="2.7"/>
<path d="M398.027 14.1953L415.012 7.57616" stroke="#FFFAEE" stroke-width="2.7"/>
<path d="M399.286 5.34082L413.753 16.4321" stroke="#FFFAEE" stroke-width="2.7"/>
<path d="M663.816 40.8213L666.334 23.1108" stroke="#FFFAEE" stroke-width="2.7"/>
<path d="M656.606 35.4502L673.591 28.831" stroke="#FFFAEE" stroke-width="2.7"/>
<path d="M657.865 26.5957L672.332 37.687" stroke="#FFFAEE" stroke-width="2.7"/>
<path d="M565.768 47.8066L568.286 30.0962" stroke="#FFFAEE" stroke-width="2.7"/>
<path d="M558.558 42.4355L575.544 35.8164" stroke="#FFFAEE" stroke-width="2.7"/>
<path d="M559.817 33.5811L574.285 44.6724" stroke="#FFFAEE" stroke-width="2.7"/>
<path d="M172.816 18.8213L175.334 1.11083" stroke="#FFFAEE" stroke-width="2.7"/>
<path d="M165.606 13.4502L182.591 6.83104" stroke="#FFFAEE" stroke-width="2.7"/>
<path d="M166.865 4.5957L181.332 15.687" stroke="#FFFAEE" stroke-width="2.7"/>
<path d="M7.81567 30.8213L10.3338 13.1108" stroke="#FFFAEE" stroke-width="2.7"/>
<path d="M0.605713 25.4502L17.5915 18.831" stroke="#FFFAEE" stroke-width="2.7"/>
<path d="M1.86475 16.5957L16.3324 27.687" stroke="#FFFAEE" stroke-width="2.7"/>
</svg>
