<svg width="316" height="800" viewBox="0 0 316 800" fill="none" xmlns="http://www.w3.org/2000/svg">
<g clip-path="url(#clip0_209_265)">
<rect width="316" height="800" fill="#FFFAEE"/>
<path d="M335.849 -7.99023L557.291 355.058H114.406L335.849 -7.99023Z" fill="#AE1100"/>
<path d="M301.11 184.496L561.514 610.758H40.7047L301.11 184.496Z" fill="#AE1100"/>
<path d="M256.69 390.651L517.095 816.913H-3.71521L256.69 390.651Z" fill="#AE1100"/>
<path d="M121.617 546.816C117.934 551.383 111.246 552.099 106.68 548.417L98.4111 541.748L91.7427 550.017C88.0598 554.583 81.3722 555.3 76.8056 551.617C72.2391 547.934 71.5227 541.246 75.2056 536.68L81.874 528.411L73.6055 521.743C69.0389 518.06 68.3225 511.372 72.0054 506.806C75.6883 502.239 82.3758 501.523 86.9424 505.206L95.2109 511.874L101.879 503.605C105.562 499.039 112.25 498.323 116.816 502.005C121.383 505.688 122.099 512.376 118.416 516.942L111.748 525.211L120.017 531.879C124.583 535.562 125.3 542.25 121.617 546.816Z" fill="#12131D"/>
<path d="M245.918 597.561C243.819 603.039 237.676 605.779 232.198 603.68L222.278 599.88L218.478 609.799C216.379 615.277 210.236 618.017 204.758 615.918C199.28 613.819 196.54 607.676 198.639 602.198L202.44 592.279L192.52 588.478C187.042 586.379 184.302 580.237 186.401 574.758C188.5 569.28 194.643 566.541 200.121 568.64L210.04 572.44L213.841 562.521C215.94 557.042 222.082 554.303 227.561 556.402C233.039 558.501 235.779 564.643 233.68 570.121L229.879 580.041L239.799 583.841C245.277 585.94 248.016 592.083 245.918 597.561Z" fill="#12131D"/>
<path d="M156.294 590.165C150.508 591.129 145.035 587.218 144.071 581.432L142.327 570.953L131.848 572.698C126.061 573.662 120.589 569.752 119.625 563.965C118.662 558.178 122.572 552.705 128.359 551.742L138.837 549.997L137.092 539.519C136.128 533.732 140.038 528.259 145.825 527.296C151.612 526.332 157.085 530.242 158.048 536.029L159.793 546.507L170.271 544.762C176.058 543.799 181.531 547.709 182.494 553.496C183.458 559.283 179.548 564.755 173.761 565.719L163.283 567.464L165.028 577.942C165.991 583.729 162.081 589.201 156.294 590.165Z" fill="#12131D"/>
<path d="M298.364 634.255C293.139 636.923 286.741 634.85 284.073 629.625L279.243 620.164L269.782 624.994C264.557 627.662 258.159 625.589 255.491 620.364C252.823 615.139 254.896 608.74 260.121 606.073L269.582 601.242L264.752 591.782C262.084 586.557 264.157 580.158 269.382 577.491C274.607 574.823 281.006 576.896 283.673 582.121L288.504 591.582L297.964 586.751C303.189 584.084 309.588 586.157 312.255 591.382C314.923 596.607 312.85 603.005 307.625 605.673L298.164 610.503L302.994 619.964C305.662 625.189 303.589 631.587 298.364 634.255Z" fill="#12131D"/>
<path d="M76.0079 786.384C72.9543 791.393 66.4181 792.979 61.4088 789.925L52.3386 784.396L46.8096 793.466C43.7561 798.476 37.2199 800.061 32.2105 797.008C27.2012 793.954 25.6157 787.418 28.6693 782.409L34.1982 773.338L25.128 767.809C20.1187 764.756 18.5332 758.22 21.5868 753.21C24.6403 748.201 31.1766 746.616 36.1859 749.669L45.2561 755.198L50.785 746.128C53.8385 741.119 60.3748 739.533 65.3841 742.587C70.3934 745.64 71.9789 752.176 68.9254 757.186L63.3964 766.256L72.4666 771.785C77.4759 774.838 79.0614 781.375 76.0079 786.384Z" fill="#12131D"/>
<path d="M205.881 820.423C204.517 826.129 198.786 829.649 193.08 828.285L182.748 825.816L180.279 836.147C178.915 841.853 173.184 845.373 167.478 844.009C161.772 842.645 158.252 836.914 159.616 831.208L162.085 820.877L151.754 818.407C146.048 817.043 142.528 811.312 143.892 805.606C145.256 799.9 150.987 796.38 156.693 797.744L167.024 800.214L169.494 789.882C170.858 784.177 176.589 780.657 182.295 782.02C188.001 783.384 191.521 789.116 190.157 794.821L187.687 805.153L198.019 807.622C203.725 808.986 207.244 814.717 205.881 820.423Z" fill="#12131D"/>
<path d="M116.061 824.821C110.45 826.533 104.512 823.373 102.8 817.762L99.6984 807.602L89.5387 810.704C83.9277 812.416 77.9906 809.256 76.2778 803.645C74.565 798.034 77.7252 792.097 83.3363 790.384L93.496 787.283L90.3948 777.123C88.682 771.512 91.8422 765.575 97.4532 763.862C103.064 762.15 109.001 765.31 110.714 770.921L113.815 781.081L123.975 777.979C129.586 776.267 135.523 779.427 137.236 785.038C138.949 790.649 135.789 796.586 130.178 798.299L120.018 801.4L123.119 811.56C124.832 817.171 121.672 823.108 116.061 824.821Z" fill="#12131D"/>
<path d="M262.679 849.938C257.848 853.267 251.233 852.049 247.904 847.218L241.878 838.471L233.13 844.498C228.299 847.826 221.685 846.609 218.356 841.778C215.028 836.947 216.246 830.332 221.076 827.004L229.824 820.977L223.797 812.229C220.468 807.398 221.686 800.784 226.517 797.455C231.348 794.127 237.962 795.345 241.291 800.176L247.318 808.923L256.065 802.896C260.896 799.567 267.511 800.785 270.839 805.616C274.168 810.447 272.95 817.062 268.119 820.39L259.372 826.417L265.399 835.164C268.727 839.995 267.51 846.61 262.679 849.938Z" fill="#12131D"/>
<path d="M129.208 685.067C125.956 689.95 119.362 691.272 114.478 688.021L105.637 682.134L99.7494 690.975C96.4979 695.858 89.9035 697.181 85.0203 693.93C80.1372 690.678 78.8144 684.084 82.0659 679.201L87.9533 670.359L79.1116 664.471C74.2284 661.22 72.9057 654.626 76.1572 649.742C79.4087 644.859 86.0031 643.537 90.8863 646.788L99.728 652.675L105.615 643.834C108.867 638.951 115.461 637.628 120.344 640.879C125.228 644.131 126.55 650.725 123.299 655.608L117.411 664.45L126.253 670.337C131.136 673.589 132.459 680.183 129.208 685.067Z" fill="#12131D"/>
<path d="M257.615 724.275C256.024 729.922 250.156 733.21 244.51 731.619L234.285 728.738L231.404 738.962C229.813 744.609 223.946 747.897 218.299 746.306C212.652 744.715 209.365 738.847 210.956 733.2L213.836 722.976L203.612 720.095C197.965 718.504 194.677 712.637 196.269 706.99C197.86 701.343 203.727 698.055 209.374 699.646L219.598 702.527L222.479 692.303C224.07 686.656 229.937 683.368 235.584 684.959C241.231 686.55 244.519 692.418 242.928 698.065L240.047 708.289L250.271 711.17C255.918 712.761 259.206 718.628 257.615 724.275Z" fill="#12131D"/>
<path d="M167.691 725.076C162.016 726.563 156.21 723.168 154.723 717.493L152.03 707.217L141.755 709.909C136.08 711.396 130.274 708.001 128.787 702.326C127.3 696.651 130.695 690.845 136.37 689.358L146.646 686.666L143.954 676.39C142.467 670.715 145.862 664.909 151.537 663.422C157.212 661.935 163.018 665.33 164.505 671.005L167.197 681.281L177.473 678.589C183.148 677.102 188.954 680.497 190.441 686.172C191.928 691.847 188.532 697.653 182.857 699.14L172.582 701.832L175.274 712.108C176.761 717.783 173.366 723.589 167.691 725.076Z" fill="#12131D"/>
<path d="M313.186 756.038C308.226 759.171 301.666 757.689 298.533 752.729L292.861 743.748L283.879 749.42C278.919 752.553 272.359 751.071 269.226 746.111C266.093 741.151 267.575 734.59 272.535 731.457L281.516 725.785L275.844 716.804C272.712 711.844 274.193 705.283 279.153 702.15C284.114 699.018 290.674 700.499 293.807 705.46L299.479 714.441L308.46 708.769C313.421 705.636 319.981 707.118 323.114 712.078C326.246 717.038 324.765 723.599 319.805 726.731L310.823 732.403L316.496 741.385C319.628 746.345 318.147 752.906 313.186 756.038Z" fill="#12131D"/>
<path d="M187.741 440.446C183.022 443.931 176.371 442.931 172.886 438.211L166.576 429.666L158.031 435.976C153.311 439.461 146.66 438.46 143.175 433.741C139.69 429.022 140.691 422.371 145.41 418.886L153.956 412.576L147.646 404.031C144.161 399.311 145.161 392.66 149.881 389.175C154.6 385.69 161.251 386.691 164.736 391.41L171.046 399.956L179.591 393.646C184.311 390.161 190.962 391.161 194.446 395.881C197.931 400.6 196.931 407.251 192.211 410.736L183.666 417.046L189.976 425.591C193.461 430.311 192.46 436.961 187.741 440.446Z" fill="#12131D"/>
<path d="M317.918 485.561C315.819 491.039 309.676 493.779 304.198 491.68L294.278 487.88L290.478 497.799C288.379 503.277 282.236 506.017 276.758 503.918C271.28 501.819 268.54 495.676 270.639 490.198L274.44 480.279L264.52 476.478C259.042 474.379 256.302 468.237 258.401 462.758C260.5 457.28 266.643 454.541 272.121 456.64L282.04 460.44L285.841 450.521C287.94 445.042 294.082 442.303 299.561 444.402C305.039 446.501 307.779 452.643 305.68 458.121L301.879 468.041L311.799 471.841C317.277 473.94 320.016 480.083 317.918 485.561Z" fill="#12131D"/>
<path d="M228.294 478.165C222.508 479.129 217.035 475.218 216.071 469.432L214.327 458.953L203.848 460.698C198.061 461.662 192.589 457.752 191.625 451.965C190.662 446.178 194.572 440.705 200.359 439.742L210.837 437.997L209.092 427.519C208.128 421.732 212.038 416.259 217.825 415.296C223.612 414.332 229.085 418.242 230.048 424.029L231.793 434.507L242.271 432.762C248.058 431.799 253.531 435.709 254.494 441.496C255.458 447.283 251.548 452.755 245.761 453.719L235.283 455.464L237.028 465.942C237.991 471.729 234.081 477.201 228.294 478.165Z" fill="#12131D"/>
<path d="M367.364 529.255C362.139 531.923 355.741 529.85 353.073 524.625L348.243 515.164L338.782 519.994C333.557 522.662 327.159 520.589 324.491 515.364C321.823 510.139 323.896 503.74 329.121 501.073L338.582 496.242L333.752 486.782C331.084 481.557 333.157 475.158 338.382 472.491C343.607 469.823 350.006 471.896 352.673 477.121L357.504 486.582L366.964 481.751C372.189 479.084 378.588 481.157 381.255 486.382C383.923 491.607 381.85 498.005 376.625 500.673L367.164 505.503L371.994 514.964C374.662 520.189 372.589 526.587 367.364 529.255Z" fill="#12131D"/>
<path d="M207.617 280.816C203.934 285.383 197.246 286.099 192.68 282.417L184.411 275.748L177.743 284.017C174.06 288.583 167.372 289.3 162.806 285.617C158.239 281.934 157.523 275.246 161.206 270.68L167.874 262.411L159.605 255.743C155.039 252.06 154.322 245.372 158.005 240.806C161.688 236.239 168.376 235.523 172.942 239.206L181.211 245.874L187.879 237.605C191.562 233.039 198.25 232.323 202.816 236.005C207.383 239.688 208.099 246.376 204.416 250.942L197.748 259.211L206.017 265.879C210.583 269.562 211.3 276.25 207.617 280.816Z" fill="#12131D"/>
<path d="M331.918 331.561C329.819 337.039 323.676 339.779 318.198 337.68L308.278 333.88L304.478 343.799C302.379 349.277 296.236 352.017 290.758 349.918C285.28 347.819 282.54 341.676 284.639 336.198L288.44 326.279L278.52 322.478C273.042 320.379 270.302 314.237 272.401 308.758C274.5 303.28 280.643 300.541 286.121 302.64L296.04 306.44L299.841 296.521C301.94 291.042 308.082 288.303 313.561 290.402C319.039 292.501 321.779 298.643 319.68 304.121L315.879 314.041L325.799 317.841C331.277 319.94 334.016 326.083 331.918 331.561Z" fill="#12131D"/>
<path d="M242.294 324.165C236.508 325.129 231.035 321.218 230.071 315.432L228.327 304.953L217.848 306.698C212.061 307.662 206.589 303.752 205.625 297.965C204.662 292.178 208.572 286.705 214.359 285.742L224.837 283.997L223.092 273.519C222.128 267.732 226.038 262.259 231.825 261.296C237.612 260.332 243.085 264.242 244.048 270.029L245.793 280.507L256.271 278.762C262.058 277.799 267.531 281.709 268.494 287.496C269.458 293.283 265.548 298.755 259.761 299.719L249.283 301.464L251.028 311.942C251.991 317.729 248.081 323.201 242.294 324.165Z" fill="#12131D"/>
<path d="M276.199 150.302C277.213 156.081 273.351 161.587 267.572 162.601L257.11 164.438L258.946 174.9C259.96 180.679 256.098 186.185 250.32 187.199C244.541 188.213 239.035 184.351 238.021 178.573L236.185 168.11L225.722 169.947C219.944 170.961 214.437 167.099 213.423 161.32C212.409 155.542 216.271 150.036 222.049 149.021L232.512 147.185L230.676 136.723C229.662 130.944 233.524 125.438 239.302 124.424C245.08 123.41 250.587 127.272 251.601 133.05L253.437 143.513L263.9 141.676C269.678 140.662 275.184 144.524 276.199 150.302Z" fill="#12131D"/>
<path d="M298.055 232.267C292.196 232.565 287.205 228.056 286.908 222.197L286.37 211.588L275.761 212.126C269.902 212.423 264.911 207.914 264.614 202.055C264.317 196.196 268.826 191.205 274.685 190.908L285.294 190.37L284.756 179.761C284.459 173.902 288.967 168.911 294.827 168.614C300.686 168.317 305.676 172.826 305.973 178.685L306.512 189.294L317.12 188.756C322.98 188.459 327.97 192.967 328.267 198.827C328.565 204.686 324.056 209.676 318.197 209.973L307.588 210.512L308.126 221.12C308.423 226.98 303.914 231.97 298.055 232.267Z" fill="#12131D"/>
</g>
<defs>
<clipPath id="clip0_209_265">
<rect width="316" height="800" fill="white"/>
</clipPath>
</defs>
</svg>
