<svg width="316" height="800" viewBox="0 0 316 800" fill="none" xmlns="http://www.w3.org/2000/svg">
<g clip-path="url(#clip0_209_257)">
<rect width="316" height="800" fill="#12131D"/>
<path d="M337.449 -9.99023L558.891 353.058H116.006L337.449 -9.99023Z" fill="#FFFAEE"/>
<path d="M302.71 182.496L563.115 608.758H42.3053L302.71 182.496Z" fill="#FFFAEE"/>
<path d="M258.29 388.651L518.695 814.913H-2.11462L258.29 388.651Z" fill="#FFFAEE"/>
<circle cx="191.791" cy="231.791" r="33.7913" fill="#AE1100"/>
<circle cx="234.791" cy="299.791" r="33.7913" fill="#AE1100"/>
<circle cx="157.791" cy="428.791" r="33.7913" fill="#AE1100"/>
<circle cx="85.7913" cy="547.791" r="33.7913" fill="#AE1100"/>
<circle cx="146.791" cy="611.791" r="33.7913" fill="#AE1100"/>
<circle cx="234.791" cy="645.791" r="33.7913" fill="#AE1100"/>
<circle cx="78.7913" cy="722.791" r="33.7913" fill="#AE1100"/>
<circle cx="173.791" cy="750.791" r="33.7913" fill="#AE1100"/>
<circle cx="281.791" cy="773.791" r="33.7913" fill="#AE1100"/>
<circle cx="326.791" cy="666.791" r="33.7913" fill="#AE1100"/>
<circle cx="315.791" cy="333.791" r="33.7913" fill="#AE1100"/>
<circle cx="219.791" cy="483.791" r="33.7913" fill="#AE1100"/>
<circle cx="302.791" cy="513.791" r="33.7913" fill="#AE1100"/>
</g>
<defs>
<clipPath id="clip0_209_257">
<rect width="316" height="800" fill="white"/>
</clipPath>
</defs>
</svg>
